<svg aria-label="AQtive Guard" width="287" height="320" viewBox="0 0 287 320" xmlns="http://www.w3.org/2000/svg">
<path fill-rule="evenodd" clip-rule="evenodd" d="M257.79 41.4609C260.615 41.3253 262.93 43.6242 262.93 46.4427V92.7656C262.93 94.2678 262.265 95.6943 261.114 96.6641L208.901 140.643L208.645 140.43L157.674 96.6615C156.545 95.692 155.897 94.2793 155.897 92.7943V46.4427C155.897 43.6245 158.21 41.3252 161.034 41.4662C195.931 43.2089 207.156 62.696 208.901 75.2995C210.682 62.6844 222.144 43.1725 257.79 41.4609ZM227.321 77.0625L209.395 128.099L227.321 97.7318L227.878 97.5833C239.476 94.5109 247.549 84.0479 247.55 72.0885L255.232 64.3021L227.321 77.0625ZM171.244 72.0885C171.244 84.0479 179.317 94.5109 190.915 97.5833L191.472 97.7318L209.395 128.099L191.472 77.0625L163.561 64.3021L171.244 72.0885Z"/>
<path fill-rule="evenodd" clip-rule="evenodd" d="M225.032 0C259.256 1.48807e-05 287 27.6492 287 61.7552V197.883L193.4 289.177L224.329 320H113.067L140.252 292.909L99.4714 320H0L123.272 130.143H132.337V61.7552C132.337 27.6493 160.081 0.000192238 194.304 0H225.032ZM194.304 8.16667C164.607 8.16686 140.531 32.1592 140.531 61.7552V130.654H158.455L199.426 179.138L158.455 138.31H127.73L15.0621 311.833H96.9915L204.548 240.383L132.849 311.833H158.455L278.805 194.451V61.7552C278.805 32.1591 254.73 8.16668 225.032 8.16667H194.304ZM173.82 311.833H204.548L189.183 296.523L173.82 311.833Z"/>
</svg>
