<svg title="SandboxAQ - AQtive Guard" width="266" height="21" viewBox="0 0 266 21" fill="none" xmlns="http://www.w3.org/2000/svg">
<path d="M3.72113 3.06031V5.02743L18.4879 13.5789V14.9147C18.4879 15.5003 18.1783 16.0419 17.6738 16.3391L14.7669 18.0513V16.0355L0.00012207 7.48399V6.15403C0.00012207 5.56196 0.316619 5.01513 0.829858 4.72051L3.72113 3.06031Z" fill="#E5A724"/>
<path d="M8.42043 20.7147L0.827388 16.3363C0.315519 16.0412 0 15.4953 0 14.9043V11.1616L13.2937 18.8578L10.0716 20.7148C9.56044 21.0093 8.93132 21.0093 8.42043 20.7147Z" fill="#E5A724"/>
<path d="M10.0675 0.34174L17.6605 4.71986C18.1724 5.01511 18.488 5.56115 18.488 6.15196V9.90112L5.18872 2.20198L8.41643 0.341582C8.92748 0.0468073 9.55659 0.047123 10.0675 0.34174Z" fill="#E5A724"/>
<path d="M123.131 9.80088V13.1703L124.802 15.0824H127.714L123.131 9.80088Z" fill="#E5A724"/>
<path d="M122.545 13.6825L122.488 13.6177L122.445 13.6217C122.339 13.6311 122.241 13.636 122.147 13.636C120.395 13.636 119.306 12.3606 119.306 10.3077C119.306 8.25487 120.395 6.97945 122.147 6.97945C123.9 6.97945 124.989 8.25487 124.989 10.3077C124.989 10.4494 124.982 10.5913 124.97 10.7326L126.79 12.8302C127.128 12.0715 127.301 11.2244 127.301 10.3077C127.301 7.08507 125.182 4.83438 122.147 4.83438C119.121 4.83438 117.007 7.08507 117.007 10.3077C117.007 13.5306 119.115 15.7812 122.134 15.7812C122.722 15.7812 123.291 15.6942 123.823 15.523L124.081 15.4403L122.545 13.6825Z" fill="#E5A724"/>
<path d="M28.5784 4.8107C30.8581 4.8107 32.2917 6.07224 32.2917 8.07955H29.9834C29.9834 7.33394 29.4242 6.87539 28.5495 6.87539C27.6034 6.87539 27.0012 7.30541 27.0012 8.00783C27.0012 8.65318 27.331 8.96845 28.0765 9.12624L29.6681 9.45585C31.5606 9.843 32.4637 10.7464 32.4637 12.4238C32.4637 14.474 30.8581 15.8074 28.4207 15.8074C26.055 15.8074 24.5209 14.5312 24.5209 12.5384H26.8291C26.8291 13.3128 27.4027 13.7429 28.4351 13.7429C29.4814 13.7429 30.1411 13.327 30.1411 12.6531C30.1411 12.0655 29.8688 11.7644 29.166 11.6208L27.546 11.2913C25.6536 10.904 24.6787 9.82866 24.6787 8.09374C24.6787 6.17266 26.2987 4.8107 28.5784 4.8107Z" fill="white"/>
<path d="M38.2843 11.4347H40.3777L39.6176 9.16934C39.5031 8.81088 39.374 8.3952 39.331 8.13699C39.2878 8.38085 39.1732 8.78235 39.0443 9.16934L38.2843 11.4347ZM34.4275 15.621L38.2126 5.01159H40.4779L44.2485 15.621H41.7827L41.0371 13.3843H37.6104L36.8506 15.621H34.4275Z" fill="white"/>
<path d="M46.8866 15.621V5.01159H49.1805L53.6537 11.7645V5.01159H55.9475V15.621H53.6537L49.1805 8.8826V15.621H46.8866Z" fill="white"/>
<path d="M61.8826 7.16203V13.4704H63.4884C65.3236 13.4704 66.399 12.3094 66.399 10.345C66.399 8.33766 65.2662 7.16203 63.3452 7.16203H61.8826ZM59.5601 15.621V5.01159H63.5745C66.6857 5.01159 68.8505 7.19072 68.8505 10.345C68.8505 13.4417 66.743 15.621 63.718 15.621H59.5601Z" fill="white"/>
<path d="M74.1981 11.3056V13.5851H76.1622C77.0224 13.5851 77.467 13.1981 77.467 12.4095C77.467 11.6926 77.0081 11.3056 76.1622 11.3056H74.1981ZM74.1981 7.04743V9.35566H76.0476C76.879 9.35566 77.3379 8.94014 77.3379 8.17987C77.3379 7.43442 76.8935 7.04743 76.0476 7.04743H74.1981ZM71.8754 5.01159H76.2913C78.4274 5.01159 79.718 6.12968 79.718 7.95051C79.718 9.08327 79.2017 9.91479 78.2412 10.3306C79.2878 10.6747 79.8469 11.4919 79.8469 12.6964C79.8469 14.5744 78.5852 15.621 76.2913 15.621H71.8754V5.01159Z" fill="white"/>
<path d="M87.4312 7.06193C85.7104 7.06193 84.6782 8.28044 84.6782 10.3019C84.6782 12.3379 85.7104 13.5566 87.4312 13.5566C89.1371 13.5566 90.1696 12.3092 90.1696 10.3019C90.1696 8.28044 89.1371 7.06193 87.4312 7.06193ZM87.4025 15.7931C84.3341 15.7931 82.2266 13.5566 82.2266 10.3163C82.2266 7.07612 84.3485 4.82511 87.4167 4.82511C90.499 4.82511 92.6209 7.06193 92.6209 10.3019C92.6209 13.5421 90.4848 15.7931 87.4025 15.7931Z" fill="white"/>
<path d="M94.3556 5.01159H97.1229L98.0118 6.40223C98.3989 7.0044 98.7717 7.64943 99.2448 8.5243L101.367 5.01159H104.076L100.722 10.3163L104.076 15.621H101.324L100.621 14.5169C100.091 13.671 99.7465 13.0404 99.2305 12.0941L96.9509 15.621H94.2267L97.7682 10.3163L94.3556 5.01159Z" fill="white"/>
<path d="M111.038 8.33552C111.042 8.32527 111.045 8.31487 111.049 8.30462C111.05 8.30872 111.051 8.31266 111.053 8.3166L112.16 11.4305H109.952L111.038 8.33552ZM113.612 15.6143H115.954L112.126 5.01496H109.999L106.171 15.6143H108.484L109.268 13.3815H112.833L113.612 15.6143Z" fill="#E5A724"/>
<path d="M134.477 0.120553V20.9358" stroke="white" stroke-width="0.90633" stroke-miterlimit="10"/>
<path d="M157.863 13.1691L159.533 15.0804H162.444L157.863 9.80113V13.1691Z" fill="white"/>
<path d="M157.22 13.6165L157.178 13.6205C157.07 13.6299 156.974 13.6347 156.88 13.6347C155.128 13.6347 154.041 12.36 154.041 10.308C154.041 8.25605 155.128 6.98143 156.88 6.98143C158.632 6.98143 159.72 8.25605 159.72 10.308C159.72 10.4497 159.714 10.5916 159.701 10.7326L161.52 12.8292C161.858 12.0709 162.031 11.2243 162.031 10.308C162.031 7.08688 159.912 4.83713 156.88 4.83713C153.855 4.83713 151.742 7.08688 151.742 10.308C151.742 13.5292 153.85 15.7788 156.865 15.7788C157.455 15.7788 158.022 15.6921 158.555 15.5211L158.812 15.4382L157.277 13.6812L157.22 13.6165Z" fill="white"/>
<path d="M144.691 11.4301L145.776 8.33651C145.779 8.32642 145.783 8.31602 145.787 8.30577C145.788 8.30971 145.789 8.31381 145.79 8.31759L146.898 11.4301H144.691ZM144.737 5.01769L140.911 15.6119H143.223L144.006 13.3803H147.57L148.348 15.6119H150.689L146.863 5.01769H144.737Z" fill="white"/>
<path d="M164.697 7.16421H167.709V15.6265H170.033V7.16421H173.045V5.01298H164.697V7.16421Z" fill="white"/>
<path d="M175.87 15.6265H178.195V5.01298H175.87V15.6265Z" fill="white"/>
<path d="M186.742 10.3774C186.628 10.693 186.515 11.0177 186.406 11.3524C186.296 11.6872 186.173 12.1079 186.04 12.6147C185.925 12.1555 185.815 11.7495 185.709 11.3957C185.604 11.0418 185.49 10.7025 185.366 10.3774L183.357 5.01298H180.876L184.848 15.6265H187.245L191.146 5.01298H188.722L186.742 10.3774Z" fill="white"/>
<path d="M193.827 15.6265H200.569V13.4749H196.151V11.2808H200.067V9.24403H196.151V7.16421H200.569V5.01298H193.827V15.6265Z" fill="white"/>
<path d="M212.315 7.44402C212.745 7.16217 213.281 7.02124 213.921 7.02124C214.476 7.02124 214.974 7.14798 215.412 7.40114C215.852 7.65477 216.139 8.0632 216.273 8.62737H218.711C218.634 7.86254 218.382 7.19543 217.952 6.62653C217.521 6.05779 216.963 5.61815 216.281 5.30698C215.597 4.9966 214.829 4.84086 213.979 4.84086C212.888 4.84086 211.936 5.07762 211.125 5.55084C210.311 6.02421 209.681 6.67445 209.231 7.50155C208.782 8.32866 208.557 9.27793 208.557 10.3484C208.557 11.4383 208.773 12.3899 209.203 13.2029C209.633 14.0155 210.228 14.649 210.987 15.1031C211.749 15.5574 212.62 15.7845 213.606 15.7845C214.083 15.7845 214.536 15.7267 214.961 15.6124C215.387 15.4975 215.759 15.3348 216.08 15.1246C216.289 14.9879 216.457 14.8355 216.594 14.6701L216.719 15.6265H218.711V9.53109H213.721V11.5677H216.531C216.511 11.773 216.467 11.9741 216.396 12.1699C216.295 12.4476 216.142 12.6961 215.937 12.9158C215.731 13.136 215.461 13.308 215.127 13.4324C214.791 13.5569 214.384 13.6187 213.907 13.6187C213.342 13.6187 212.843 13.5014 212.408 13.2673C211.973 13.0331 211.63 12.677 211.383 12.1987C211.134 11.7209 211.009 11.1281 211.009 10.42C211.009 9.73176 211.12 9.13417 211.339 8.62737C211.56 8.12058 211.884 7.72618 212.315 7.44402Z" fill="white"/>
<path d="M228.422 11.4815C228.422 12.1319 228.242 12.6385 227.884 13.0017C227.525 13.3655 227.016 13.5469 226.357 13.5469C225.706 13.5469 225.204 13.3699 224.851 13.0162C224.497 12.6623 224.32 12.1509 224.32 11.4815V5.01281H221.997V11.6393C221.997 12.4806 222.175 13.2147 222.534 13.8408C222.892 14.4674 223.4 14.95 224.054 15.2894C224.709 15.6287 225.477 15.7986 226.357 15.7986C227.246 15.7986 228.02 15.6263 228.68 15.2825C229.339 14.9379 229.848 14.4554 230.208 13.8337C230.566 13.2121 230.745 12.4806 230.745 11.6393V5.01281H228.422V11.4815Z" fill="white"/>
<path d="M236.77 11.4383L237.53 9.17231C237.596 8.9811 237.656 8.7921 237.709 8.60577C237.761 8.41945 237.798 8.26434 237.817 8.13981C237.835 8.26434 237.873 8.42166 237.932 8.61287C237.988 8.80439 238.047 8.99103 238.103 9.17231L238.863 11.4383H236.77ZM236.697 5.01298L232.911 15.6265H235.335L236.095 13.389H239.524L240.269 15.6265H242.736L238.964 5.01298H236.697Z" fill="white"/>
<path d="M250.675 9.50208C250.393 9.75082 249.999 9.87536 249.491 9.87536H247.727V7.0783H249.505C250.022 7.0783 250.416 7.19542 250.689 7.42983C250.962 7.66438 251.097 8.00582 251.097 8.45539C251.097 8.9048 250.957 9.25381 250.675 9.50208ZM253.113 10.2192C253.405 9.73175 253.55 9.14378 253.55 8.45539C253.55 7.35605 253.199 6.50719 252.496 5.90976C251.794 5.31217 250.796 5.01298 249.505 5.01298H245.404V15.6265H247.727V11.912H249.519L251.111 15.6265H253.651L251.786 11.4101C252.379 11.1041 252.82 10.7072 253.113 10.2192Z" fill="white"/>
<path d="M263.204 12.0266C262.973 12.4951 262.641 12.8537 262.206 13.1023C261.771 13.3512 261.247 13.4749 260.636 13.4749H259.029V7.16421H260.492C261.132 7.16421 261.679 7.29111 262.135 7.54443C262.589 7.79774 262.937 8.16125 263.182 8.63462C263.426 9.10768 263.547 9.67942 263.547 10.3484C263.547 10.999 263.432 11.5583 263.204 12.0266ZM265.325 7.56618C264.876 6.76256 264.257 6.13691 263.468 5.68718C262.679 5.23761 261.764 5.01298 260.721 5.01298H256.706V15.6265H260.864C261.878 15.6265 262.77 15.4023 263.539 14.9526C264.31 14.5033 264.912 13.8819 265.347 13.0879C265.782 12.2944 266 11.3812 266 10.3484C266 9.29668 265.775 8.36917 265.325 7.56618Z" fill="white"/>
</svg>
