<svg width="638" height="68" viewBox="0 0 638 68" fill="none" xmlns="http://www.w3.org/2000/svg">
<path fill-rule="evenodd" clip-rule="evenodd" d="M137.923 12.0892C140.862 12.0892 143.61 12.6866 146.164 13.8839C148.733 15.0577 150.993 16.693 152.944 18.788C154.896 20.8832 156.416 23.3132 157.504 26.0755L157.706 26.5929C158.681 29.1911 159.168 31.9625 159.168 34.9048C159.168 37.5832 158.758 40.1188 157.935 42.5094C157.245 44.567 156.317 46.463 155.152 48.196C154.909 48.5572 154.947 49.0378 155.242 49.3349L159.832 53.9595L159.635 54.1615L155.817 58.0551L151.358 53.5079C151.052 53.196 150.553 53.1719 150.197 53.4531C148.632 54.6883 146.897 55.6801 144.992 56.4287C142.768 57.2898 140.409 57.7203 137.923 57.7203C134.984 57.7203 132.226 57.1329 129.653 55.9572C127.085 54.763 124.823 53.1278 122.872 51.0537C120.92 48.9582 119.389 46.5265 118.281 43.7639C117.191 40.9974 116.647 38.0425 116.647 34.9048C116.647 31.767 117.191 28.8235 118.28 26.0772C119.388 23.3147 120.919 20.8834 122.871 18.788C124.823 16.6924 127.084 15.0566 129.653 13.8828C132.226 12.6864 134.984 12.0893 137.923 12.0892ZM137.381 57.4303L137.923 57.437C137.565 57.437 137.211 57.428 136.859 57.4104C137.032 57.4191 137.206 57.4259 137.381 57.4303ZM137.923 17.8699C135.751 17.8699 133.722 18.3271 131.833 19.2395C129.96 20.1339 128.304 21.3743 126.867 22.9616C125.451 24.5288 124.332 26.3413 123.512 28.4008C122.715 30.4344 122.315 32.6016 122.315 34.9048C122.315 37.2496 122.725 39.4477 123.542 41.5017C124.362 43.5601 125.49 45.3824 126.927 46.9702C128.363 48.5367 130.017 49.7563 131.89 50.6303L132.246 50.7886C134.032 51.5556 135.924 51.9396 137.923 51.9396C139.552 51.9396 141.153 51.6558 142.725 51.088C143.921 50.6404 145.018 50.0468 146.016 49.3072C146.386 49.0333 146.419 48.4736 146.071 48.1202L141.06 43.0373L145.074 38.9091L149.845 43.8292C150.208 44.2031 150.79 44.1471 151.048 43.7313C151.738 42.6208 152.286 41.4289 152.692 40.1553C153.231 38.4455 153.5 36.6957 153.5 34.9048C153.5 32.5598 153.09 30.3614 152.272 28.3073C151.473 26.2496 150.355 24.4362 148.919 22.8697C147.483 21.3036 145.819 20.0843 143.925 19.2102L143.922 19.2086C142.053 18.3163 140.054 17.8699 137.923 17.8699ZM142.466 51.4765C142.484 51.4704 142.503 51.4655 142.521 51.4593L142.822 51.3536C142.704 51.3965 142.585 51.437 142.466 51.4765ZM145.725 49.8572C145.748 49.8421 145.77 49.8277 145.793 49.8124L145.878 49.751C145.827 49.7864 145.777 49.8224 145.725 49.8572ZM145.878 49.751C145.979 49.6806 146.08 49.6099 146.179 49.5363L145.878 49.751ZM151.186 44.0135C151.194 44.0042 151.202 43.9955 151.21 43.9858L151.224 43.9654C151.211 43.9817 151.199 43.998 151.186 44.0135ZM151.224 43.9654C151.245 43.9389 151.265 43.9117 151.283 43.8823L151.224 43.9654ZM153.772 35.3087C153.773 35.2877 153.774 35.2667 153.774 35.2457L153.778 34.9048C153.778 35.0397 153.775 35.1743 153.772 35.3087ZM118.16 27.2088C118.132 27.2897 118.106 27.3712 118.08 27.4523C118.11 27.3604 118.14 27.2683 118.171 27.1767L118.16 27.2088ZM122.715 19.3751C122.692 19.4015 122.669 19.4284 122.646 19.4548C122.683 19.4127 122.72 19.3705 122.757 19.3286L122.715 19.3751ZM123.072 18.9833C122.966 19.0974 122.861 19.2126 122.757 19.3286L123.072 18.9833ZM129.295 14.3642C129.173 14.4235 129.052 14.4848 128.932 14.5463C129.069 14.4762 129.208 14.4073 129.347 14.3399L129.295 14.3642Z" fill="white"/>
<path fill-rule="evenodd" clip-rule="evenodd" d="M239.452 24.5659C241.782 24.5659 243.922 25.0496 245.87 26.0207L246.235 26.2028C248.042 27.1365 249.595 28.4048 250.893 30.0051C252.298 31.7117 253.34 33.6906 254.02 35.9385C254.721 38.1892 254.977 40.594 254.792 43.1502L254.773 43.4125H230.962C230.445 43.4126 230.081 43.8726 230.195 44.3417C230.492 45.5617 230.967 46.677 231.618 47.6896L231.784 47.9359C232.626 49.1497 233.675 50.1232 234.932 50.8589L235.188 51.0011C236.477 51.6895 237.897 52.0439 239.453 52.063C241.227 52.0628 242.827 51.6017 244.261 50.6812C245.701 49.7357 246.868 48.4472 247.76 46.8092L247.862 46.6222L253.599 47.9907L253.46 48.3045C252.222 51.1033 250.353 53.3983 247.858 55.1858C245.356 56.9574 242.55 57.8443 239.452 57.8443C236.601 57.8443 233.994 57.0959 231.636 55.5981C229.304 54.1036 227.435 52.1025 226.033 49.601L226.032 49.5988C224.648 47.0714 223.958 44.2818 223.958 41.2361C223.958 38.9258 224.36 36.768 225.166 34.7659C225.969 32.7491 227.073 30.9811 228.477 29.465L228.746 29.1806C230.109 27.7789 231.671 26.6726 233.433 25.863C235.317 24.9977 237.324 24.5659 239.452 24.5659ZM239.189 57.5587L239.452 57.5609C239.363 57.5609 239.277 57.5602 239.189 57.5587ZM244.045 51.1422C244.074 51.1255 244.103 51.1095 244.132 51.0924L244.187 51.0581C244.14 51.0865 244.093 51.1146 244.045 51.1422ZM244.412 50.9192L244.187 51.0581C244.263 51.013 244.338 50.967 244.412 50.9192ZM245.711 49.9098L245.717 49.9043L245.727 49.8943C245.721 49.8994 245.716 49.9048 245.711 49.9098ZM224.244 41.7955C224.245 41.8253 224.247 41.8549 224.248 41.8846C224.246 41.8327 224.244 41.7807 224.243 41.7286C224.243 41.7509 224.243 41.7732 224.244 41.7955ZM224.31 39.5582C224.309 39.5742 224.307 39.5903 224.306 39.6063C224.319 39.4527 224.335 39.2997 224.352 39.1476L224.31 39.5582ZM239.452 29.7876C237.795 29.7876 236.282 30.1997 234.906 31.0217C233.524 31.8471 232.378 32.9635 231.467 34.3763C230.794 35.4288 230.314 36.5803 230.025 37.8311C229.918 38.2971 230.281 38.7491 230.793 38.7491H248.15C248.653 38.7491 249.011 38.3146 248.916 37.8604C248.659 36.634 248.187 35.4946 247.498 34.441C246.588 33.0283 245.43 31.8982 244.027 31.0516C242.63 30.209 241.107 29.7876 239.452 29.7876ZM224.464 38.338L224.403 38.7408C224.423 38.5973 224.445 38.4547 224.468 38.3125C224.467 38.321 224.465 38.3295 224.464 38.338ZM228.424 29.942C228.348 30.028 228.273 30.1151 228.199 30.2027C228.277 30.1105 228.356 30.0192 228.435 29.9287L228.424 29.942ZM238.277 24.8951C238.407 24.8849 238.537 24.8765 238.667 24.8697L238.673 24.8691C238.541 24.876 238.409 24.8848 238.277 24.8951Z" fill="white"/>
<path fill-rule="evenodd" clip-rule="evenodd" d="M289.259 12.2442C292.51 12.2442 295.606 13.0214 298.546 14.5728C301.488 16.1255 304.016 18.3693 306.129 21.2981L306.318 21.5604L301.266 24.3429L301.122 24.1553C299.584 22.1591 297.76 20.6349 295.649 19.5788C293.555 18.5211 291.405 17.9939 289.198 17.9939C287.087 17.9939 285.087 18.4301 283.196 19.3026C281.323 20.1766 279.658 21.3959 278.202 22.9627C276.765 24.5297 275.637 26.3421 274.818 28.4008C274.001 30.4539 273.59 32.6828 273.59 35.0907C273.59 37.4357 274 39.6341 274.818 41.6882C275.637 43.7464 276.755 45.5576 278.17 47.1241C279.606 48.67 281.271 49.8798 283.165 50.7543C285.055 51.6268 287.076 52.0636 289.229 52.0636C290.941 52.0636 292.561 51.7695 294.091 51.1821C295.645 50.5929 297.07 49.7596 298.365 48.6824C299.68 47.6053 300.797 46.334 301.715 44.8701L301.716 44.8674C302.399 43.8013 302.96 42.6595 303.399 41.4414C303.581 40.9391 303.206 40.4021 302.646 40.4021H293.333V35.1798H310.354L310.352 35.4654C310.331 38.5425 309.757 41.435 308.626 44.1402C307.517 46.84 305.987 49.217 304.036 51.27C302.104 53.3238 299.864 54.9386 297.316 56.1122C294.783 57.2671 292.065 57.8442 289.168 57.8443C286.189 57.8443 283.401 57.2573 280.808 56.0817L280.805 56.0806C278.236 54.886 275.985 53.2403 274.053 51.1444L274.052 51.1422C272.142 49.0267 270.643 46.5974 269.556 43.8563C268.466 41.0898 267.922 38.1355 267.922 34.9977C267.922 31.7565 268.486 28.7499 269.617 25.9814C270.767 23.2192 272.328 20.8078 274.301 18.7537C276.293 16.7012 278.564 15.1071 281.113 13.9752C283.685 12.8211 286.401 12.2442 289.259 12.2442ZM288.618 57.5543L289.168 57.5609C288.805 57.5609 288.446 57.5519 288.09 57.5344C288.265 57.543 288.441 57.5499 288.618 57.5543ZM290.074 52.3226C289.795 52.3385 289.513 52.3464 289.229 52.3464C289.655 52.3464 290.077 52.3287 290.492 52.2927L290.074 52.3226ZM301.698 45.4102C301.722 45.3734 301.747 45.3367 301.771 45.2996L301.949 45.0223C301.867 45.1533 301.783 45.2823 301.698 45.4102ZM303.419 42.1657C303.442 42.1104 303.465 42.0554 303.487 41.9997L303.52 41.909C303.487 41.9948 303.454 42.0806 303.419 42.1657ZM303.52 41.909C303.568 41.7865 303.615 41.6636 303.66 41.5393L303.52 41.909ZM269.671 26.6051C269.651 26.6576 269.633 26.7107 269.613 26.7634C269.637 26.7 269.659 26.6362 269.683 26.573L269.671 26.6051ZM289.639 17.7177C289.632 17.7175 289.626 17.7174 289.62 17.7172L289.198 17.7105C289.345 17.7105 289.492 17.7131 289.639 17.7177ZM280.756 14.4494C280.724 14.4648 280.691 14.4809 280.659 14.4965C280.711 14.4714 280.764 14.4465 280.816 14.4218L280.756 14.4494ZM283.153 13.4877C283.126 13.4967 283.098 13.5067 283.07 13.5159C283.157 13.4872 283.243 13.4597 283.33 13.4323C283.271 13.4509 283.212 13.4685 283.153 13.4877ZM284.138 13.1944C284.11 13.2017 284.083 13.2101 284.056 13.2176C284.124 13.1988 284.193 13.1803 284.262 13.1623C284.221 13.1731 284.179 13.1832 284.138 13.1944ZM287.936 12.5712C288.027 12.5654 288.117 12.5587 288.208 12.5541L288.224 12.553C288.128 12.5578 288.032 12.565 287.936 12.5712Z" fill="white"/>
<path fill-rule="evenodd" clip-rule="evenodd" d="M319.164 43.8121C319.164 45.3362 319.528 46.7132 320.251 47.9497C320.978 49.192 321.949 50.1822 323.167 50.9236C324.401 51.6417 325.751 52.0016 327.225 52.0016C328.721 52.0016 330.061 51.6408 331.253 50.9236C332.47 50.1822 333.441 49.1919 334.168 47.9497C334.892 46.7132 335.255 45.3362 335.255 43.8121V25.4347H340.923L340.954 57.0374H335.287L335.268 54.4802C335.267 54.3517 335.185 54.2437 335.047 54.1925C334.907 54.1406 334.755 54.1666 334.656 54.2672C333.77 55.1681 332.744 55.9255 331.583 56.5399L331.58 56.5416C329.897 57.4107 328.078 57.8443 326.129 57.8443C323.81 57.8443 321.682 57.2733 319.751 56.1299L319.748 56.1282C317.842 54.9662 316.318 53.4119 315.179 51.4682C314.057 49.5185 313.496 47.3457 313.496 44.9603V25.4347H319.164V43.8121ZM329.653 51.9396C329.663 51.9367 329.673 51.9343 329.682 51.9313L329.938 51.8483C329.844 51.8808 329.749 51.9108 329.653 51.9396ZM334.234 48.3769C334.244 48.3621 334.254 48.3476 334.263 48.3327L334.407 48.0953C334.351 48.1908 334.293 48.2845 334.234 48.3769ZM313.781 45.3964C313.785 45.5339 313.791 45.6705 313.799 45.8065C313.791 45.6671 313.785 45.5269 313.781 45.3859V45.3964Z" fill="white"/>
<path fill-rule="evenodd" clip-rule="evenodd" d="M359.853 24.5659C362.292 24.5659 364.445 25.1567 366.3 26.3472C367.528 27.1215 368.601 28.0518 369.518 29.1379C369.613 29.2507 369.778 29.2876 369.941 29.2309C370.102 29.1748 370.188 29.0544 370.184 28.921L370.074 25.728L370.064 25.4347H375.742V57.0374H370.085L370.074 56.7657L369.945 53.5799C369.939 53.448 369.845 53.334 369.678 53.2882C369.51 53.242 369.344 53.2897 369.254 53.4072C368.442 54.4649 367.468 55.3701 366.334 56.1227C364.618 57.2745 362.575 57.8443 360.218 57.8443C357.951 57.8443 355.823 57.4135 353.839 56.5493L353.837 56.5482C351.859 55.6655 350.106 54.4562 348.58 52.9213L348.578 52.9186C347.072 51.3621 345.896 49.5734 345.051 47.5546C344.203 45.5309 343.78 43.351 343.78 41.0186C343.78 38.7685 344.193 36.6414 345.02 34.6397C345.845 32.6412 346.991 30.8926 348.457 29.3969C349.943 27.8816 351.657 26.7026 353.596 25.8608C355.54 24.9967 357.626 24.5659 359.853 24.5659ZM353.229 55.9478C353.247 55.9571 353.266 55.9657 353.285 55.9749C353.226 55.9459 353.168 55.9165 353.111 55.8869C353.15 55.9071 353.189 55.9279 353.229 55.9478ZM350.986 54.5981C351.589 55.0275 352.219 55.417 352.877 55.7663C352.904 55.7808 352.932 55.794 352.959 55.8084C352.272 55.448 351.614 55.0451 350.986 54.5981ZM360.127 30.222C358.166 30.222 356.391 30.7165 354.793 31.7023C353.19 32.6912 351.914 34.0217 350.964 35.6983C350.036 37.3489 349.571 39.1926 349.571 41.2361C349.571 43.2777 350.056 45.131 351.023 46.8026C351.994 48.4593 353.28 49.7803 354.884 50.7698C356.483 51.7356 358.229 52.2191 360.127 52.2191C362.088 52.2191 363.767 51.7345 365.176 50.777L365.441 50.5888C366.749 49.6264 367.764 48.3637 368.487 46.7954L368.488 46.7926C369.28 45.1168 369.678 43.2662 369.678 41.2361C369.678 39.1635 369.28 37.3032 368.489 35.6496L368.336 35.3386C367.557 33.8116 366.494 32.5994 365.147 31.6962L365.144 31.694C363.735 30.7161 362.066 30.2221 360.127 30.222ZM364.967 51.2446C364.995 51.2272 365.024 51.2108 365.053 51.1931L365.119 51.1505C365.068 51.1822 365.018 51.2137 364.967 51.2446ZM365.119 51.1505C365.19 51.1057 365.26 51.0602 365.33 51.0127L365.119 51.1505ZM369.95 41.6489C369.95 41.6398 369.951 41.6308 369.951 41.6218L369.956 41.2361C369.956 41.3745 369.954 41.5121 369.95 41.6489ZM345.128 35.1195C345.115 35.1542 345.102 35.1893 345.089 35.2241C345.112 35.1634 345.136 35.103 345.159 35.0426C345.149 35.0683 345.138 35.0937 345.128 35.1195ZM354.049 31.8562C354.011 31.8831 353.974 31.9113 353.936 31.9386C353.979 31.9071 354.023 31.875 354.067 31.844L354.049 31.8562ZM348.387 29.8762C348.307 29.9624 348.227 30.0495 348.149 30.1374C348.313 29.9539 348.481 29.7741 348.654 29.5978L348.387 29.8762ZM353.35 26.2808C353.296 26.306 353.242 26.332 353.188 26.3577C353.262 26.3224 353.337 26.2876 353.412 26.2531L353.35 26.2808ZM354.065 25.9676C354.049 25.9739 354.034 25.9806 354.019 25.987C354.048 25.9747 354.078 25.9625 354.107 25.9504C354.093 25.9562 354.079 25.9618 354.065 25.9676Z" fill="white"/>
<path fill-rule="evenodd" clip-rule="evenodd" d="M430.367 57.0374H424.698V53.586C424.698 53.4532 424.608 53.335 424.442 53.2833C424.275 53.2311 424.108 53.2736 424.015 53.389C423.153 54.4586 422.132 55.3708 420.955 56.1249C419.16 57.2744 417.058 57.8443 414.66 57.8443C412.412 57.8442 410.305 57.4132 408.341 56.5488C406.383 55.6867 404.65 54.4979 403.144 52.9833L403.141 52.9806C401.656 51.4449 400.491 49.6772 399.646 47.6797C398.798 45.6767 398.375 43.5279 398.375 41.2361C398.375 38.9443 398.798 36.7954 399.646 34.7924C400.491 32.7742 401.656 31.0061 403.143 29.4905C404.648 27.9547 406.382 26.7548 408.341 25.8923C410.305 25.0279 412.412 24.5969 414.66 24.5969C417.058 24.5969 419.16 25.1667 420.955 26.3162C422.132 27.0703 423.153 27.9825 424.015 29.0522C424.108 29.1675 424.275 29.21 424.442 29.1579C424.608 29.1062 424.698 28.9879 424.698 28.8552V9.91666H430.367V57.0374ZM424.846 53.2241L424.843 53.2196L424.834 53.2102C424.838 53.2148 424.842 53.2193 424.846 53.2241ZM414.721 30.222C412.761 30.222 410.984 30.7165 409.386 31.7023C407.804 32.6909 406.539 34.0215 405.588 35.6983C404.641 37.3488 404.165 39.1933 404.165 41.2361C404.165 43.2777 404.65 45.131 405.617 46.8026C406.588 48.4593 407.874 49.7804 409.478 50.7698C411.077 51.7356 412.823 52.2191 414.721 52.2191C416.682 52.2191 418.361 51.7345 419.77 50.777L420.035 50.5888C421.344 49.6264 422.359 48.3637 423.081 46.7954L423.083 46.7926C423.874 45.1168 424.272 43.2662 424.272 41.2361C424.272 39.1635 423.874 37.3032 423.083 35.6496L422.931 35.3386C422.151 33.8116 421.088 32.5994 419.742 31.6962L419.738 31.694C418.329 30.7161 416.66 30.2221 414.721 30.222ZM402.551 51.9081C402.626 51.9983 402.704 52.0872 402.782 52.1759C402.618 51.989 402.458 51.7993 402.303 51.6059L402.551 51.9081ZM419.561 51.2446C419.59 51.2272 419.619 51.2108 419.647 51.1931L419.713 51.1505C419.662 51.1822 419.612 51.2137 419.561 51.2446ZM419.713 51.1505C419.784 51.1057 419.855 51.0602 419.924 51.0127L419.713 51.1505ZM424.544 41.6489C424.544 41.6398 424.545 41.6308 424.545 41.6218C424.549 41.4939 424.55 41.3653 424.55 41.2361C424.55 41.3745 424.548 41.5121 424.544 41.6489ZM423.538 35.9822C423.518 35.9369 423.5 35.8911 423.48 35.8461L423.471 35.8262C423.494 35.8778 423.516 35.9302 423.538 35.9822ZM399.749 35.275C399.742 35.2937 399.735 35.3127 399.728 35.3314C399.783 35.1885 399.841 35.0462 399.901 34.9048L399.749 35.275ZM424.971 28.9282C424.972 28.9216 424.973 28.915 424.974 28.9083C424.976 28.8909 424.976 28.8732 424.976 28.8552C424.976 28.8802 424.974 28.9045 424.971 28.9282Z" fill="white"/>
<path fill-rule="evenodd" clip-rule="evenodd" d="M101.226 13.2065L116.851 57.0374H110.843L110.776 56.8509L108.144 49.4666C107.864 48.6829 107.134 48.1611 106.316 48.1611H89.4408C88.6209 48.1611 87.889 48.6859 87.6112 49.4726L84.9399 57.0374H78.9006L94.5262 13.2065L94.5924 13.02H101.159L101.226 13.2065ZM90.5695 41.2399C90.3718 41.7943 90.7746 42.3805 91.353 42.3805H104.397C104.976 42.3805 105.378 41.7934 105.18 41.2388L97.8605 20.8034L90.5695 41.2399Z" fill="white"/>
<path fill-rule="evenodd" clip-rule="evenodd" d="M173.538 24.5875C173.54 25.0558 173.913 25.4347 174.372 25.4347H180.45V31.2154H174.374C173.914 31.2154 173.541 31.5953 173.541 32.0642L173.511 57.0374H167.843V56.7535L167.873 32.0665C167.873 31.5966 167.5 31.2154 167.039 31.2154H162.64V25.4347H167.037C167.498 25.4347 167.872 25.0524 167.87 24.5819L167.843 15.9735L167.843 15.6896H173.511L173.538 24.5875ZM167.135 25.7125C167.14 25.712 167.145 25.7125 167.151 25.7119C167.156 25.7114 167.162 25.7099 167.168 25.7092C167.157 25.7106 167.146 25.7114 167.135 25.7125Z" fill="white"/>
<path d="M190.112 57.0374H184.444V25.4347H190.112V57.0374Z" fill="white"/>
<path fill-rule="evenodd" clip-rule="evenodd" d="M199.883 25.5592L207.755 47.6714C208.021 48.4179 209.056 48.4179 209.322 47.6714L217.194 25.5592L217.26 25.3727H223.299L212.086 56.8509L212.02 57.0374H205.088L193.778 25.3727H199.817L199.883 25.5592ZM209.547 47.8584C209.56 47.8292 209.572 47.7994 209.583 47.7682L209.547 47.8584Z" fill="white"/>
<path fill-rule="evenodd" clip-rule="evenodd" d="M395.484 24.5659C396.685 24.5659 397.847 24.7243 398.967 25.0418L399.267 25.1265L399.15 25.4209L396.985 30.8778L396.739 30.7987C395.932 30.5376 395.149 30.4085 394.389 30.4085C392.915 30.4085 391.564 30.7788 390.33 31.5181C389.113 32.2386 388.142 33.2186 387.415 34.4604C386.692 35.6969 386.328 37.0739 386.328 38.5981V57.0374H380.66V25.4347H386.328V27.9105C386.328 28.0392 386.409 28.1484 386.549 28.2011C386.691 28.2544 386.845 28.2287 386.945 28.128C387.828 27.2387 388.848 26.4958 390.003 25.8995C391.687 25.0096 393.515 24.5659 395.484 24.5659ZM387.036 28.4114C387.045 28.4052 387.056 28.4004 387.065 28.3936L387.083 28.3781C387.067 28.3898 387.052 28.401 387.036 28.4114ZM387.083 28.3781C387.103 28.3634 387.122 28.3476 387.14 28.3295L387.083 28.3781ZM389.918 26.2637C389.91 26.2679 389.903 26.2727 389.895 26.2769C389.972 26.2349 390.05 26.1931 390.129 26.1524L389.918 26.2637Z" fill="white"/>
<path fill-rule="evenodd" clip-rule="evenodd" d="M187.308 14.7272C188.168 14.7272 188.908 15.0223 189.51 15.6132C190.114 16.2069 190.416 16.9546 190.416 17.8351C190.416 18.7136 190.115 19.4588 189.513 20.0519C188.93 20.6464 188.199 20.9422 187.339 20.9423C186.461 20.9423 185.711 20.6487 185.107 20.0563C184.503 19.4626 184.201 18.7154 184.201 17.8351C184.201 16.9546 184.503 16.207 185.107 15.6132C185.709 15.0223 186.449 14.7273 187.308 14.7272ZM187.188 20.6562L187.339 20.659C187.241 20.659 187.144 20.6553 187.05 20.6474C187.096 20.6512 187.142 20.6542 187.188 20.6562ZM185.2 15.9198C184.977 16.1612 184.805 16.4281 184.686 16.7205C184.823 16.3862 185.028 16.0851 185.301 15.8174L185.2 15.9198Z" fill="white"/>
<path d="M451.394 56.5362H449.484V39.8535H451.596V47.3562C452.316 45.9055 453.799 45.1348 455.597 45.1348C458.744 45.1348 460.632 47.6282 460.632 51.0508C460.632 54.4055 458.654 56.8082 455.462 56.8082C453.732 56.8082 452.271 56.0375 451.551 54.5188L451.394 56.5362ZM451.619 50.9602C451.619 53.2722 452.923 54.8815 455.08 54.8815C457.238 54.8815 458.519 53.2495 458.519 50.9602C458.519 48.6935 457.238 47.0615 455.08 47.0615C452.923 47.0615 451.619 48.6935 451.619 50.9602Z" fill="white"/>
<path d="M461.531 61.5002V59.7548H462.947C463.958 59.7548 464.767 59.5962 465.284 58.1908L465.667 57.1255L461.239 45.4522H463.464L466.655 54.3828L469.914 45.4522H472.095L466.903 59.0295C466.161 60.9335 465.06 61.7268 463.374 61.7268C462.677 61.7268 462.093 61.6362 461.531 61.5002Z" fill="white"/>
<path d="M623.021 47.3281V52.1447L625.371 54.8364H629.573L623.021 47.3281Z" fill="white"/>
<path d="M622.167 52.8529L622.096 52.782H622.024C621.882 52.782 621.739 52.782 621.597 52.782C619.105 52.782 617.538 50.9404 617.538 48.0362C617.538 45.1321 619.105 43.2904 621.597 43.2904C624.09 43.2904 625.656 45.1321 625.656 48.0362C625.656 48.2487 625.656 48.4612 625.656 48.6737L628.22 51.6487C628.719 50.5862 628.932 49.382 628.932 48.0362C628.932 43.4321 625.941 40.2446 621.597 40.2446C617.253 40.2446 614.262 43.4321 614.262 48.0362C614.262 52.6404 617.253 55.8279 621.597 55.8279C622.452 55.8279 623.235 55.6862 624.018 55.4737L624.374 55.332L622.167 52.8529Z" fill="white"/>
<path d="M488.14 40.2445C491.416 40.2445 493.41 42.0154 493.41 44.8487H490.134C490.134 43.7862 489.351 43.1487 488.069 43.1487C486.716 43.1487 485.861 43.7862 485.861 44.7779C485.861 45.6987 486.36 46.1237 487.428 46.3362L489.707 46.832C492.413 47.3987 493.695 48.6737 493.695 51.0112C493.695 53.9154 491.416 55.8278 487.926 55.8278C484.579 55.8278 482.372 53.9862 482.372 51.2237H485.648C485.648 52.357 486.431 52.9237 487.926 52.9237C489.422 52.9237 490.348 52.357 490.348 51.3654C490.348 50.5154 489.992 50.0904 488.923 49.8779L486.645 49.382C483.938 48.8154 482.585 47.3279 482.585 44.8487C482.585 42.2279 484.864 40.2445 488.14 40.2445Z" fill="white"/>
<path d="M496.472 55.6154L501.885 40.5279H505.089L510.502 55.6154H507.012L505.944 52.4279H501.03L499.962 55.6154H496.472ZM501.956 49.6654H504.947L503.879 46.4779C503.736 45.9821 503.523 45.3446 503.451 44.9904C503.38 45.3446 503.238 45.9112 503.024 46.4779L501.956 49.6654Z" fill="white"/>
<path d="M514.205 55.6154V40.5279H517.481L523.89 50.0904V40.5279H527.166V55.6154H523.89L517.481 46.0529V55.6154H514.205Z" fill="white"/>
<path d="M532.293 55.6154V40.5279H537.991C542.406 40.5279 545.539 43.6446 545.539 48.1071C545.539 52.4987 542.548 55.6154 538.204 55.6154H532.293ZM535.641 52.4987H537.919C540.554 52.4987 542.05 50.8696 542.05 48.0362C542.05 45.2029 540.412 43.5029 537.706 43.5029H535.641V52.4987Z" fill="white"/>
<path d="M549.883 40.5279H556.15C559.213 40.5279 561.064 42.0862 561.064 44.7071C561.064 46.3362 560.352 47.4696 558.928 48.1071C560.423 48.6029 561.207 49.7362 561.207 51.4362C561.207 54.1279 559.426 55.6154 556.15 55.6154H549.883V40.5279ZM553.231 46.6904H555.866C557.076 46.6904 557.717 46.1237 557.717 44.9904C557.717 43.9279 557.076 43.3612 555.866 43.3612H553.231V46.6904ZM553.231 49.4529V52.7112H556.008C557.219 52.7112 557.859 52.1446 557.859 51.0112C557.859 50.0196 557.219 49.4529 556.008 49.4529H553.231Z" fill="white"/>
<path d="M572.031 55.8279C567.687 55.8279 564.625 52.6404 564.625 48.0362C564.625 43.4321 567.687 40.2446 572.031 40.2446C576.447 40.2446 579.438 43.4321 579.438 48.0362C579.438 52.6404 576.447 55.8279 572.031 55.8279ZM572.103 43.4321C569.681 43.4321 568.186 45.1321 568.186 48.0362C568.186 50.9404 569.681 52.6404 572.103 52.6404C574.524 52.6404 576.019 50.8695 576.019 48.0362C576.019 45.2029 574.524 43.4321 572.103 43.4321Z" fill="white"/>
<path d="M581.93 40.5279H585.847L587.129 42.5112C587.699 43.3612 588.197 44.2821 588.909 45.5571L591.972 40.5987H595.817L591.046 48.1071L595.817 55.6154H591.9L590.903 54.0571C590.12 52.8529 589.622 51.932 588.909 50.5862L585.633 55.6154H581.717L586.773 48.1071L581.93 40.5279Z" fill="white"/>
<path d="M609.419 55.6154H612.766L607.283 40.5279H604.221L598.737 55.5445H602.013L603.152 52.357H608.209L609.419 55.6154ZM605.787 45.2737C605.787 45.2029 605.787 45.2029 605.787 45.2737L607.354 49.6654H604.221L605.787 45.2737Z" fill="white"/>
<path d="M631.14 38.8278H633.917V39.5362H632.991V41.732H632.066V39.5362H631.14V38.8278ZM634.344 38.8278H635.555L635.982 40.5987L636.41 38.8278H637.62V41.732H636.908V39.5362L636.339 41.732H635.698L635.128 39.5362V41.732H634.416V38.8278H634.344Z" fill="white"/>
<path fill-rule="evenodd" clip-rule="evenodd" d="M55.65 8.81045C56.2598 8.78163 56.7595 9.27015 56.7596 9.86908V19.7127C56.7596 20.0319 56.616 20.335 56.3675 20.5411L45.0962 29.8867L45.0409 29.8413V29.8396L34.0375 20.5406C33.7938 20.3345 33.6539 20.0344 33.6539 19.7188V9.86908C33.654 9.27021 34.1532 8.7816 34.7629 8.81156C42.2962 9.18188 44.7194 13.3229 45.0962 16.0011C45.4805 13.3204 47.9549 9.17415 55.65 8.81045ZM49.0725 16.3758L45.2028 27.221L49.0725 20.768L49.1927 20.7365C51.6964 20.0836 53.4392 17.8602 53.4393 15.3188L55.0977 13.6642L49.0725 16.3758ZM36.9669 15.3188C36.967 17.8602 38.7098 20.0836 41.2134 20.7365L41.3336 20.768L45.2028 27.221L41.3336 16.3758L35.3084 13.6642L36.9669 15.3188Z" fill="white"/>
<path fill-rule="evenodd" clip-rule="evenodd" d="M48.5784 0C55.9663 3.16216e-06 61.9556 5.87546 61.9556 13.123V42.0501L41.7499 61.4501L48.4266 68H24.4082L30.2766 62.2431L21.4732 68H0L26.611 27.6554H28.5679V13.123C28.5679 5.87548 34.5572 4.08506e-05 41.9451 0H48.5784ZM41.9451 1.73542C35.5341 1.73546 30.337 6.83383 30.337 13.123V27.7639H34.2061L43.0507 38.0668L34.2061 29.3909H27.5734L3.2515 66.2646H20.9379L44.1564 51.0813L28.6785 66.2646H34.2061L60.1865 41.3207V13.123C60.1865 6.83381 54.9894 1.73542 48.5784 1.73542H41.9451ZM37.5231 66.2646H44.1564L40.8394 63.0112L37.5231 66.2646Z" fill="white"/>
</svg>
