<?xml version="1.0" encoding="UTF-8" standalone="no"?>
<!-- Generator: Adobe Illustrator 24.2.1, SVG Export Plug-In . SVG Version: 6.00 Build 0)  -->

<svg
   version="1.1"
   id="Layer_1"
   x="0px"
   y="0px"
   viewBox="0 0 192.09599 211.20001"
   xml:space="preserve"
   sodipodi:docname="SandboxAQ-S-Logo-White.svg"
   inkscape:version="1.4.2 (ebf0e940, 2025-05-08)"
   width="2.0009999in"
   height="2.2in"
   xmlns:inkscape="http://www.inkscape.org/namespaces/inkscape"
   xmlns:sodipodi="http://sodipodi.sourceforge.net/DTD/sodipodi-0.dtd"
   xmlns="http://www.w3.org/2000/svg"
   xmlns:svg="http://www.w3.org/2000/svg"><defs
   id="defs13"><clipPath
     clipPathUnits="userSpaceOnUse"
     id="clipPath15"><path
       class="st0"
       d="m 1196.9,219.8 h 22.9 l -37.5,-103.7 h -20.8 L 1124,219.8 h 22.6 l 7.7,-21.8 h 34.9 z m -25.2,-71.3 c 0,-0.1 0.1,-0.2 0.1,-0.3 0,0 0,0.1 0,0.1 l 10.8,30.5 H 1161 Z"
       id="path15"
       style="fill:#000000" /></clipPath><clipPath
     clipPathUnits="userSpaceOnUse"
     id="clipPath16"><path
       class="st0"
       d="m 1196.9,219.8 h 22.9 l -37.5,-103.7 h -20.8 L 1124,219.8 h 22.6 l 7.7,-21.8 h 34.9 z m -25.2,-71.3 c 0,-0.1 0.1,-0.2 0.1,-0.3 0,0 0,0.1 0,0.1 l 10.8,30.5 H 1161 Z"
       id="path16"
       style="fill:#000000" /></clipPath><clipPath
     clipPathUnits="userSpaceOnUse"
     id="clipPath17"><path
       class="st0"
       d="m 1196.9,219.8 h 22.9 l -37.5,-103.7 h -20.8 L 1124,219.8 h 22.6 l 7.7,-21.8 h 34.9 z m -25.2,-71.3 c 0,-0.1 0.1,-0.2 0.1,-0.3 0,0 0,0.1 0,0.1 l 10.8,30.5 H 1161 Z"
       id="path17"
       style="fill:#000000" /></clipPath><clipPath
     clipPathUnits="userSpaceOnUse"
     id="clipPath18"><path
       class="st0"
       d="m 1196.9,219.8 h 22.9 l -37.5,-103.7 h -20.8 L 1124,219.8 h 22.6 l 7.7,-21.8 h 34.9 z m -25.2,-71.3 c 0,-0.1 0.1,-0.2 0.1,-0.3 0,0 0,0.1 0,0.1 l 10.8,30.5 H 1161 Z"
       id="path18"
       style="fill:#000000" /></clipPath><clipPath
     clipPathUnits="userSpaceOnUse"
     id="clipPath19"><path
       class="st0"
       d="m 1196.9,219.8 h 22.9 l -37.5,-103.7 h -20.8 L 1124,219.8 h 22.6 l 7.7,-21.8 h 34.9 z m -25.2,-71.3 c 0,-0.1 0.1,-0.2 0.1,-0.3 0,0 0,0.1 0,0.1 l 10.8,30.5 H 1161 Z"
       id="path19"
       style="fill:#000000" /></clipPath><clipPath
     clipPathUnits="userSpaceOnUse"
     id="clipPath20"><path
       class="st0"
       d="m 1196.9,219.8 h 22.9 l -37.5,-103.7 h -20.8 L 1124,219.8 h 22.6 l 7.7,-21.8 h 34.9 z m -25.2,-71.3 c 0,-0.1 0.1,-0.2 0.1,-0.3 0,0 0,0.1 0,0.1 l 10.8,30.5 H 1161 Z"
       id="path20"
       style="fill:#000000" /></clipPath><clipPath
     clipPathUnits="userSpaceOnUse"
     id="clipPath21"><path
       class="st0"
       d="m 1196.9,219.8 h 22.9 l -37.5,-103.7 h -20.8 L 1124,219.8 h 22.6 l 7.7,-21.8 h 34.9 z m -25.2,-71.3 c 0,-0.1 0.1,-0.2 0.1,-0.3 0,0 0,0.1 0,0.1 l 10.8,30.5 H 1161 Z"
       id="path21"
       style="fill:#000000" /></clipPath><clipPath
     clipPathUnits="userSpaceOnUse"
     id="clipPath22"><path
       class="st0"
       d="m 1196.9,219.8 h 22.9 l -37.5,-103.7 h -20.8 L 1124,219.8 h 22.6 l 7.7,-21.8 h 34.9 z m -25.2,-71.3 c 0,-0.1 0.1,-0.2 0.1,-0.3 0,0 0,0.1 0,0.1 l 10.8,30.5 H 1161 Z"
       id="path22"
       style="fill:#000000" /></clipPath></defs><sodipodi:namedview
   id="namedview13"
   pagecolor="#ffffff"
   bordercolor="#000000"
   borderopacity="0"
   inkscape:showpageshadow="2"
   inkscape:pageopacity="0.0"
   inkscape:pagecheckerboard="0"
   inkscape:deskcolor="#d1d1d1"
   inkscape:zoom="0.5"
   inkscape:cx="503"
   inkscape:cy="165"
   inkscape:window-width="1256"
   inkscape:window-height="598"
   inkscape:window-x="606"
   inkscape:window-y="229"
   inkscape:window-maximized="0"
   inkscape:current-layer="Layer_1"
   inkscape:document-units="in" />
<style
   type="text/css"
   id="style1">
	.st0{fill:#FFFFFF;}
</style>
<g
   id="g13"
   style="fill:#ffffff"
   transform="translate(-82,-64)">
	<g
   id="g6"
   style="fill:#ffffff">
		<g
   id="g4"
   style="fill:#ffffff">
			<g
   id="g3"
   style="fill:#ffffff">
				<path
   class="st0"
   d="m 121.6,96.9 v 19.3 l 144.5,83.7 V 213 c 0,5.7 -3,11 -8,13.9 l -28.4,16.8 V 224 L 85.1,140.2 v -13 c 0,-5.8 3.1,-11.1 8.1,-14 z"
   id="path1"
   style="fill:#ffffff" />
				<path
   class="st0"
   d="M 167.5,269.7 93.2,226.9 c -5,-2.9 -8.1,-8.2 -8.1,-14 v -36.6 l 130.1,75.3 -31.5,18.2 c -5,2.8 -11.2,2.8 -16.2,-0.1 z"
   id="path2"
   style="fill:#ffffff" />
				<path
   class="st0"
   d="m 183.7,70.3 74.3,42.8 c 5,2.9 8.1,8.2 8.1,14 v 36.7 L 135.9,88.5 167.5,70.3 c 5,-2.9 11.2,-2.9 16.2,0 z"
   id="path3"
   style="fill:#ffffff" />
			</g>
		</g>
		<g
   id="g5"
   style="fill:#ffffff">
			
			<path
   class="st0"
   d="m 1284.3,200.9 -0.6,-0.6 h -0.4 c -1,0.1 -2,0.1 -2.9,0.1 -17.2,0 -27.8,-12.5 -27.8,-32.6 0,-20.1 10.7,-32.6 27.8,-32.6 17.2,0 27.8,12.5 27.8,32.6 0,1.4 -0.1,2.8 -0.2,4.2 l 17.8,20.5 c 3.3,-7.4 5,-15.7 5,-24.7 0,-31.5 -20.7,-53.6 -50.4,-53.6 -29.6,0 -50.3,22 -50.3,53.6 0,31.6 20.6,53.6 50.2,53.6 5.8,0 11.3,-0.8 16.5,-2.5 l 2.5,-0.8 z"
   id="path4"
   style="fill:#ffffff"
   clip-path="url(#clipPath22)" />
		</g>
	</g>
	<g
   id="g12"
   style="fill:#ffffff">
		<path
   class="st0"
   d="m 364.8,114.1 c 22.3,0 36.3,12.3 36.3,32 h -22.6 c 0,-7.3 -5.5,-11.8 -14,-11.8 -9.3,0 -15.2,4.2 -15.2,11.1 0,6.3 3.2,9.4 10.5,10.9 l 15.6,3.2 c 18.5,3.8 27.4,12.6 27.4,29 0,20.1 -15.7,33.1 -39.6,33.1 -23.1,0 -38.2,-12.5 -38.2,-32 h 22.6 c 0,7.6 5.6,11.8 15.7,11.8 10.2,0 16.7,-4.1 16.7,-10.7 0,-5.8 -2.7,-8.7 -9.5,-10.1 l -15.9,-3.2 c -18.5,-3.8 -28.1,-14.3 -28.1,-31.3 0.1,-18.7 16,-32 38.3,-32 z"
   id="path6"
   style="fill:#ffffff"
   clip-path="url(#clipPath21)" />
		<path
   class="st0"
   d="M 422,219.8 459,116 h 22.2 l 36.9,103.8 H 494 l -7.3,-21.9 h -33.5 l -7.4,21.9 z m 37.8,-40.9 h 20.5 l -7.4,-22.2 c -1.1,-3.5 -2.4,-7.6 -2.8,-10.1 -0.4,2.4 -1.5,6.3 -2.8,10.1 z"
   id="path7"
   style="fill:#ffffff"
   clip-path="url(#clipPath20)" />
		<path
   class="st0"
   d="M 543.9,219.8 V 116 h 22.4 l 43.8,66.1 V 116 h 22.4 v 103.8 h -22.4 l -43.8,-65.9 v 65.9 z"
   id="path8"
   style="fill:#ffffff"
   clip-path="url(#clipPath19)" />
		<path
   class="st0"
   d="M 668,219.8 V 116 h 39.3 c 30.4,0 51.6,21.3 51.6,52.2 0,30.3 -20.6,51.6 -50.2,51.6 H 668 Z m 22.7,-82.7 v 61.7 h 15.7 c 18,0 28.5,-11.4 28.5,-30.6 0,-19.6 -11.1,-31.1 -29.9,-31.1 z"
   id="path9"
   style="fill:#ffffff"
   clip-path="url(#clipPath18)" />
		<path
   class="st0"
   d="m 788.5,116 h 43.2 c 20.9,0 33.5,10.9 33.5,28.8 0,11.1 -5.1,19.2 -14.5,23.3 10.2,3.4 15.7,11.4 15.7,23.1 0,18.4 -12.3,28.6 -34.8,28.6 H 788.4 V 116 Z m 22.7,19.9 v 22.6 h 18.1 c 8.1,0 12.6,-4.1 12.6,-11.5 0,-7.3 -4.3,-11.1 -12.6,-11.1 z m 0,41.7 v 22.3 h 19.2 c 8.4,0 12.8,-3.8 12.8,-11.5 0,-7 -4.5,-10.8 -12.8,-10.8 z"
   id="path10"
   style="fill:#ffffff"
   clip-path="url(#clipPath17)" />
		<path
   class="st0"
   d="m 940.4,221.5 c -30,0 -50.6,-21.9 -50.6,-53.6 0,-31.7 20.8,-53.7 50.8,-53.7 30.2,0 50.9,21.9 50.9,53.6 0,31.7 -20.9,53.7 -51.1,53.7 z m 0.3,-85.4 c -16.8,0 -26.9,11.9 -26.9,31.7 0,19.9 10.1,31.8 26.9,31.8 16.7,0 26.8,-12.2 26.8,-31.8 0,-19.8 -10.1,-31.7 -26.8,-31.7 z"
   id="path11"
   style="fill:#ffffff"
   clip-path="url(#clipPath16)" />
		<path
   class="st0"
   d="m 1008.4,116 h 27.1 l 8.7,13.6 c 3.8,5.9 7.4,12.2 12.1,20.8 L 1077,116 h 26.5 l -32.8,51.9 32.8,51.9 h -26.9 l -6.9,-10.8 c -5.2,-8.3 -8.6,-14.4 -13.6,-23.7 l -22.3,34.5 h -26.7 l 34.7,-51.9 z"
   id="path12"
   style="fill:#ffffff"
   clip-path="url(#clipPath15)" />
	</g>
	
</g>
</svg>
