<svg width="20" height="20" viewBox="0 0 20 20" fill="none" xmlns="http://www.w3.org/2000/svg">
<g clip-path="url(#clip0_210_123)">
<path d="M3.91691 2.91455V4.788L19.4608 12.9323V14.2044C19.4608 14.7622 19.1349 15.278 18.604 15.561L15.5441 17.1917V15.2719L6.10352e-05 7.12758V5.86095C6.10352e-05 5.29707 0.333215 4.77628 0.873468 4.49569L3.91691 2.91455Z" fill="#E5A724"/>
<path d="M8.86361 19.7283L0.870935 15.5584C0.332125 15.2773 0 14.7574 0 14.1945V10.6301L13.9934 17.9598L10.6017 19.7284C10.0636 20.0088 9.40139 20.0088 8.86361 19.7283Z" fill="#E5A724"/>
<path d="M10.5973 0.325441L18.5901 4.49508C19.1288 4.77627 19.461 5.29631 19.461 5.85898V9.42961L5.46185 2.0971L8.85944 0.32529C9.39739 0.0445522 10.0596 0.0448527 10.5973 0.325441Z" fill="#E5A724"/>
</g>
<defs>
<clipPath id="clip0_210_123">
<rect width="20" height="20" fill="white"/>
</clipPath>
</defs>
</svg>
